PathFileType	4	(x/y/z)	S10_P20_T26
DataRate	CameraRate	NumFrames	NumMarkers	Units	OrigDataRate	OrigDataStartFrame	OrigNumFrames
240	240	5	51	mm	240	208	414
Frame#	Time	Sternum			R.Acromium			L.Acromium			Top.Head			R.ASIS			L.ASIS			R.PSIS			L.PSIS			R.Great.Tro			L.Great.Tro			R.Iliac.Crest			L.Iliac.Crest			V.Sacral			R.Thigh.Upper.Post			R.Thigh.Lower.Ant			R.Thigh.Lower.Post			R.Thigh.Upper.Ant			R.Knee.Lat			R.Knee.Med			R.Shank.Upper.Post			R.Shank.Lower.Ant			R.Shank.Lower.Post			R.Shank.Upper.Ant			R.Ankle.Lat			R.Ankle.Med			R.Heel.Upper			R.Heel.Med			R.Heel.Lat			R.Toe.Lat			R.Toe.Med			R.Toe.Tip			L.Thigh.Upper.Post			L.Thigh.Lower.Ant			L.Thigh.Lower.Post			L.Thigh.Upper.Ant			L.Knee.Lat			L.Knee.Med			L.Shank.Upper.Post			L.Shank.Lower.Ant			L.Shank.Lower.Post			L.Shank.Upper.Ant			L.Ankle.Lat			L.Ankle.Med			L.Heel.Upper			L.Heel.Med			L.Heel.Lat			L.Toe.Lat			L.Toe.Med			L.Toe.Tip			Cervical.Spine			Back			
		X1	Y1	Z1	X2	Y2	Z2	X3	Y3	Z3	X4	Y4	Z4	X5	Y5	Z5	X6	Y6	Z6	X7	Y7	Z7	X8	Y8	Z8	X9	Y9	Z9	X10	Y10	Z10	X11	Y11	Z11	X12	Y12	Z12	X13	Y13	Z13	X14	Y14	Z14	X15	Y15	Z15	X16	Y16	Z16	X17	Y17	Z17	X18	Y18	Z18	X19	Y19	Z19	X20	Y20	Z20	X21	Y21	Z21	X22	Y22	Z22	X23	Y23	Z23	X24	Y24	Z24	X25	Y25	Z25	X26	Y26	Z26	X27	Y27	Z27	X28	Y28	Z28	X29	Y29	Z29	X30	Y30	Z30	X31	Y31	Z31	X32	Y32	Z32	X33	Y33	Z33	X34	Y34	Z34	X35	Y35	Z35	X36	Y36	Z36	X37	Y37	Z37	X38	Y38	Z38	X39	Y39	Z39	X40	Y40	Z40	X41	Y41	Z41	X42	Y42	Z42	X43	Y43	Z43	X44	Y44	Z44	X45	Y45	Z45	X46	Y46	Z46	X47	Y47	Z47	X48	Y48	Z48	X49	Y49	Z49	X50	Y50	Z50	X51	Y51	Z51	

208	0.8625	-236.48	1293.8	293.11	-326.02	1453.7	462.68	-380.07	1476.3	166.8	-349.64	1771.6	327.92	-278.96	1020.7	416.6	-311.26	1042.9	188.69	-489.39	1045	356.93	-496.86	1052.8	276.69	-346.31	942.5	496.18	-374.27	983.79	135.5	-364.57	1102.2	472.07	-383.07	1113.7	170.81	-513.93	1014.4	323.49	-362.94	730.33	480.06	-322.06	648.4	434.12	-382.14	643.74	467.21	-299.82	736.54	443.75	-413.52	521.87	427.9	-430.33	531.32	301.13	-517.82	309.11	429.56	-464.22	238.31	408.93	-528.05	236.03	421.67	-447.33	313.74	416.16	-527.33	127.51	398.55	-526.32	138.85	320.69	-600.04	84.584	354.12	-594.8	54.542	328	-596.88	61.372	389.22	-425.08	40.805	431.04	-397.82	41.267	320.17	-337.27	49.897	361.91	-308.53	703.58	129.24	-211.58	653.03	142.95	-274.74	615.16	147.58	-238.13	738	123.91	-223.83	548.13	150.39	-186.95	546.21	276.17	-323.96	354.52	157.23	-274.41	256.24	154.41	-333.89	277.85	162.93	-264.13	332.1	148.7	-325.93	147.88	164.15	-295.19	152.89	245.6	-387.67	126.63	217.71	-377.57	92.955	248.88	-391.29	96.941	186.44	-227.6	55.677	124.34	-184.69	59.082	225.31	-138.3	65.653	171.7	-428.09	1513.8	338.28	-515.7	1307.4	343.07
209	0.86667	-231.48	1293.4	292.68	-320.5	1453.5	462.33	-375.29	1475.8	166.64	-344.36	1771.3	327.47	-273.68	1020.3	416.25	-306.31	1042.8	188.48	-484.22	1044.7	356.8	-491.81	1052.6	276.59	-341.25	942.05	495.88	-369.26	983.8	135.26	-359.08	1101.7	471.84	-378.17	1113.6	170.7	-508.78	1014	323.36	-359.49	730.15	479.75	-319.32	647.95	433.69	-379.39	643.75	466.89	-296.38	735.89	443.35	-411.94	522.14	427.83	-428.87	531.7	301.04	-516.98	309.7	429.58	-463.58	238.79	408.97	-527.4	236.66	421.7	-446.49	314.2	416.24	-526.93	128.06	398.57	-525.86	139.36	320.73	-599.76	85.382	354.17	-594.57	55.357	328.04	-596.65	62.114	389.24	-424.95	40.82	431.05	-397.69	41.289	320.22	-337.1	49.745	361.96	-303.71	703.5	129.14	-206.92	652.76	143.14	-270.16	615.06	147.59	-233.27	737.81	124.04	-218.91	547.81	150.54	-182.64	546.15	276.4	-314.05	351.35	156.65	-261.66	254.55	154	-321.78	274.41	162.3	-253.57	330.67	148.37	-310.09	144.62	163.41	-279.55	150.33	244.99	-371.16	121.46	216.84	-360.11	88.063	248.06	-373.87	91.674	185.56	-209	55.267	123.71	-166.33	59.802	224.73	-120.09	67.785	171.18	-422.91	1513.5	338.23	-510.58	1307.1	343.51
210	0.87083	-226.47	1293	292.25	-314.99	1453.3	461.97	-370.5	1475.3	166.47	-339.09	1770.9	327.01	-268.38	1019.8	415.87	-301.33	1042.7	188.26	-479.04	1044.3	356.65	-486.74	1052.3	276.46	-336.18	941.56	495.58	-364.23	983.74	135.01	-353.61	1101.2	471.6	-373.24	1113.5	170.57	-503.62	1013.7	323.22	-356.01	729.95	479.45	-316.56	647.48	433.27	-376.62	643.74	466.57	-292.91	735.21	442.96	-410.33	522.4	427.76	-427.37	532.08	300.95	-516.12	310.29	429.6	-462.92	239.25	409.02	-526.73	237.29	421.74	-445.64	314.65	416.33	-526.52	128.61	398.59	-525.37	139.87	320.76	-599.47	86.173	354.22	-594.34	56.167	328.09	-596.41	62.852	389.26	-424.82	40.833	431.05	-397.55	41.31	320.26	-336.94	49.593	362.02	-299.02	703.32	129.08	-202.4	652.36	143.31	-265.7	614.84	147.61	-228.52	737.5	124.17	-214.1	547.38	150.68	-178.45	545.94	276.64	-304.13	348.23	156.05	-248.93	252.97	153.59	-309.65	271.07	161.65	-243.04	329.29	148.04	-294.22	141.56	162.69	-263.92	147.96	244.39	-354.56	116.5	215.98	-342.59	83.428	247.25	-356.36	86.661	184.69	-190.45	55.115	123.14	-148.08	60.77	224.21	-102.01	70.154	170.75	-417.73	1513.1	338.17	-505.47	1306.7	343.92
211	0.875	-221.44	1292.5	291.8	-309.49	1453	461.6	-365.69	1474.7	166.28	-333.82	1770.4	326.55	-263.08	1019.3	415.48	-296.33	1042.6	188.02	-473.84	1043.8	356.48	-481.64	1051.9	276.31	-331.08	941.04	495.27	-359.17	983.63	134.73	-348.15	1100.6	471.35	-368.29	1113.3	170.42	-498.44	1013.3	323.05	-352.51	729.72	479.14	-313.77	646.99	432.87	-373.82	643.71	466.25	-289.42	734.51	442.58	-408.68	522.65	427.69	-425.83	532.45	300.86	-515.24	310.88	429.61	-462.23	239.71	409.08	-526.04	237.92	421.77	-444.75	315.08	416.4	-526.11	129.16	398.62	-524.87	140.37	320.8	-599.18	86.957	354.28	-594.1	56.972	328.13	-596.17	63.587	389.29	-424.69	40.846	431.07	-397.42	41.327	320.31	-336.78	49.439	362.08	-294.44	703.03	129.04	-198	651.82	143.46	-261.36	614.51	147.64	-223.88	737.05	124.28	-209.39	546.86	150.82	-174.38	545.6	276.9	-294.19	345.16	155.44	-236.23	251.51	153.2	-297.5	267.84	161	-232.54	327.98	147.73	-278.34	138.71	161.99	-248.33	145.8	243.83	-337.9	111.78	215.11	-325.05	79.06	246.45	-338.81	81.915	183.82	-171.97	55.227	122.64	-129.97	61.989	223.76	-84.101	72.761	170.4	-412.55	1512.7	338.11	-500.35	1306.3	344.31
212	0.87917	-216.41	1292	291.34	-304	1452.6	461.21	-360.88	1474.1	166.09	-328.57	1769.9	326.07	-257.75	1018.8	415.07	-291.3	1042.4	187.76	-468.62	1043.4	356.29	-476.52	1051.5	276.14	-325.96	940.48	494.96	-354.08	983.44	134.42	-342.71	1100	471.08	-363.32	1113	170.26	-493.25	1012.8	322.86	-348.99	729.48	478.84	-310.95	646.48	432.48	-371.01	643.67	465.93	-285.9	733.78	442.22	-406.98	522.89	427.61	-424.26	532.82	300.76	-514.34	311.46	429.62	-461.52	240.15	409.13	-525.34	238.55	421.81	-443.84	315.5	416.47	-525.7	129.7	398.65	-524.37	140.87	320.84	-598.88	87.736	354.34	-593.87	57.772	328.17	-595.93	64.319	389.31	-424.56	40.858	431.08	-397.29	41.34	320.36	-336.62	49.285	362.14	-289.98	702.65	129.02	-193.71	651.15	143.58	-257.14	614.07	147.68	-219.34	736.48	124.37	-204.77	546.24	150.95	-170.41	545.12	277.18	-284.26	342.15	154.83	-223.58	250.19	152.82	-285.35	264.73	160.35	-222.08	326.73	147.42	-262.48	136.07	161.32	-232.81	143.86	243.29	-321.23	107.3	214.26	-307.52	74.97	245.67	-321.23	77.448	182.98	-153.6	55.608	122.2	-112.02	63.462	223.39	-66.379	75.607	170.15	-407.37	1512.2	338.03	-495.22	1305.7	344.68
